<!-- Placeholder para Ecografía de Hombro -->
<svg width="400" height="300" viewBox="0 0 400 300" xmlns="http://www.w3.org/2000/svg">
  <rect width="400" height="300" fill="#f8f9fa"/>
  <!-- Hombro izquierdo -->
  <ellipse cx="120" cy="150" rx="25" fill="#ff6b6b" stroke="#dc3545" stroke-width="2"/>
  <circle cx="120" cy="150" r="8" fill="#dc3545" stroke="#1976d2" stroke-width="2"/>
  <path d="M120 130 Q100 100" stroke="#dc3545" stroke-width="2" fill="none"/>
  
  <!-- Hombro derecho -->
  <ellipse cx="280" cy="150" rx="25" fill="#ff6b6b" stroke="#dc3545" stroke-width="2"/>
  <circle cx="280" cy="150" r="8" fill="#dc3545" stroke="#1976d2" stroke-width="2"/>
  <path d="M280 130 Q300 100" stroke="#dc3545" stroke-width="2" fill="none"/>
  
  <!-- Manguito biceps -->
  <rect x="90" y="140" width="60" height="80" rx="8" fill="#e3f2fd"/>
  <circle cx="120" cy="180" r="12" fill="#dc3545" stroke="#1976d2" stroke-width="2"/>
  <!-- Tendón supraespinoso -->
  <ellipse cx="120" cy="90" rx="20" fill="#e3f2fd"/>
  <circle cx="120" cy="90" r="6" fill="#dc3545" stroke="#1976d2" stroke-width="2"/>
  <path d="M80 70 Q120 90 T40 70" stroke="#dc3545" stroke-width="2" fill="none"/>
  <path d="M320 70 Q280 90 T360 70" stroke="#dc3545" stroke-width="2" fill="none"/>
  <!-- Marcadores de lesiones -->
  <circle cx="60" cy="70" r="4" fill="#dc3545" stroke="#dc3545" stroke-width="2"/>
  <circle cx="340" cy="70" r="4" fill="#dc3545" stroke="#1976d2" stroke-width="2"/>
  <!-- Ecografo transductor -->
  <rect x="200" y="120" width="100" height="30" fill="#2196f3" rx="8"/>
  <rect x="210" y="150" width="80" height="20" fill="#007bff" rx="8"/>
  <path d="M290 160 Q210 150 T220 160" stroke="#007bff" stroke-width="2" fill="none"/>
  <circle cx="250" cy="160" r="3" fill="#007bff" stroke="#1976d2" stroke-width="2"/>
  <path d="M250 160 Q250 150 T280 160" stroke="#007bff" stroke-width="2" fill="none"/>
  <path d="M210 150 Q200 140" stroke="#007bff" stroke-width="2" fill="none"/>
  <text x="200" y="180" text-anchor="middle" font-family="Arial, sans-serif" font-size="12" fill="#1976d2" font-weight="bold">SHOULDER ULTRASOUND</text>
  <text x="200" y="80" text-anchor="middle" font-family="Arial, sans-serif" font-size="10" fill="#007bff">SHOULDER IMAGING</text>
  <path d="M200 140 Q200 100 T220 140" stroke="#007bff" stroke-width="2" fill="none"/>
  <path d="M200 140 Q200 120 T100 100" stroke="#007bff" stroke-width="2" fill="none"/>
  <path d="M200 140 Q200 100 T80 100" stroke="#007bff" stroke-width="2" fill="none"/>
</svg>
